
<svg width="253px" height="79px" viewBox="0 0 253 79" version="1.1" xmlns="http://www.w3.org/2000/svg" xmlns:xlink="http://www.w3.org/1999/xlink">
    <!-- Generator: Sketch 43.1 (39012) - http://www.bohemiancoding.com/sketch -->
    <desc>Created with Sketch.</desc>
    <defs></defs>
    <g id="Page-1" stroke="none" stroke-width="1" fill="none" fill-rule="evenodd">
        <g id="Desktop-HD-Copy-51" transform="translate(-151.000000, -20.000000)">
            <g id="Imported-Layers" transform="translate(151.000000, 20.000000)">
                <path d="M98.9468708,43.6336293 C98.9468708,44.8924203 98.7113521,45.9938624 98.3188211,47.0166301 C97.92629,48.0393978 97.2982404,48.9048166 96.5131783,49.691561 C95.7281162,50.3996309 94.7860417,51.0290264 93.765461,51.4223986 C92.666374,51.8157707 91.4887809,52.0517941 90.1541753,52.0517941 L85.6793214,52.0517941 C85.2082842,52.0517941 84.738032,51.8944452 84.4232221,51.501073 C84.1099823,51.1863753 83.8744637,50.7143286 83.8744637,50.242282 L83.8744637,37.1044378 C83.8744637,36.6323912 84.030691,36.1603446 84.4232221,35.8456468 C84.738032,35.5309491 85.2082842,35.2949258 85.6793214,35.2949258 L90.1541753,35.2949258 C91.4887809,35.2949258 92.666374,35.5309491 93.765461,35.9243213 C94.8645479,36.3176935 95.8066224,36.947089 96.5131783,37.6551589 C97.2982404,38.3624421 97.8477838,39.3065353 98.3188211,40.329303 C98.7113521,41.2733962 98.9468708,42.4535128 98.9468708,43.6336293 L98.9468708,43.6336293 Z M95.8851286,43.6336293 C95.8851286,42.846885 95.7281162,42.0601406 95.4925976,41.3520707 C95.2570789,40.6440007 94.8645479,40.0146052 94.3935106,39.5433454 C93.9224734,38.9926243 93.2944237,38.5992521 92.5878678,38.2845544 C91.8813119,37.9698566 91.0177436,37.8125078 90.1541753,37.8125078 L86.8569146,37.8125078 L86.8569146,49.2981888 L90.1541753,49.2981888 C91.0962498,49.2981888 91.8813119,49.1408399 92.5878678,48.8261422 C93.2944237,48.5114444 93.9224734,48.1180722 94.3935106,47.5673512 C94.8645479,47.0166301 95.2570789,46.4659091 95.4925976,45.7578391 C95.7281162,45.2071181 95.8851286,44.4203737 95.8851286,43.6336293 L95.8851286,43.6336293 Z M116.531477,49.8489098 C116.217452,49.6128865 115.903427,49.4555376 115.589402,49.4555376 L108.209818,49.4555376 L108.209818,44.8924203 L115.43239,44.8924203 C115.824921,44.8924203 116.138945,44.7350714 116.374464,44.4990481 C116.609983,44.2630248 116.766995,43.9483271 116.766995,43.5549549 C116.766995,43.1615827 116.688489,42.846885 116.374464,42.6108617 C116.060439,42.3748383 115.746414,42.2174895 115.43239,42.2174895 L108.209818,42.2174895 L108.209818,37.9698566 L115.589402,37.9698566 C115.981933,37.9698566 116.295958,37.8125078 116.531477,37.5764844 C116.766995,37.3404611 116.924008,37.0257634 116.924008,36.6323912 C116.924008,36.239019 116.766995,35.9243213 116.531477,35.688298 C116.217452,35.4522747 115.903427,35.2949258 115.589402,35.2949258 L106.953719,35.2949258 C106.483467,35.2949258 106.01243,35.5309491 105.69762,35.8456468 C105.305874,36.1603446 105.148861,36.6323912 105.148861,37.1044378 L105.148861,50.242282 C105.148861,50.7143286 105.38438,51.1863753 105.69762,51.501073 C106.01243,51.8944452 106.483467,52.0517941 106.953719,52.0517941 L115.510896,52.0517941 C115.903427,52.0517941 116.217452,51.8944452 116.45297,51.6584219 C116.688489,51.4223986 116.845501,51.1077008 116.845501,50.7143286 C116.845501,50.3209564 116.688489,50.0062587 116.531477,49.8489098 L116.531477,49.8489098 Z M134.037576,49.7702354 C133.723551,49.5342121 133.409526,49.3768632 133.095502,49.3768632 L126.894296,49.3768632 L126.894296,36.5537168 C126.894296,36.1603446 126.815005,35.8456468 126.501765,35.5309491 C126.266246,35.2949258 125.952222,35.1375769 125.481184,35.1375769 C125.010147,35.1375769 124.696122,35.2162513 124.382097,35.5309491 C124.068073,35.8456468 123.91106,36.1603446 123.91106,36.5537168 L123.91106,50.242282 C123.91106,50.7143286 124.146579,51.1863753 124.460604,51.501073 C124.774628,51.8944452 125.245666,52.0517941 125.716703,52.0517941 L133.095502,52.0517941 C133.488033,52.0517941 133.802057,51.8944452 134.037576,51.6584219 C134.273095,51.4223986 134.430107,51.1077008 134.430107,50.7143286 C134.430107,50.3209564 134.273095,50.0062587 134.037576,49.7702354 L134.037576,49.7702354 Z M144.243383,50.7143286 L144.243383,36.5537168 C144.243383,36.1603446 144.164877,35.8456468 143.850852,35.5309491 C143.615334,35.2949258 143.301309,35.1375769 142.830272,35.1375769 C142.359234,35.1375769 142.045209,35.2162513 141.731185,35.5309491 C141.41716,35.8456468 141.260147,36.1603446 141.260147,36.5537168 L141.260147,50.7143286 C141.260147,51.1077008 141.338654,51.4223986 141.652678,51.7370963 C141.966703,51.9731196 142.280728,52.1304685 142.673259,52.1304685 C143.144296,52.1304685 143.458321,52.0517941 143.772346,51.7370963 C144.007865,51.501073 144.164877,51.1077008 144.243383,50.7143286 L144.243383,50.7143286 Z M165.988818,35.5309491 C165.674793,35.2162513 165.282262,35.0589025 164.811225,35.0589025 C164.418694,35.0589025 164.104669,35.2162513 163.86915,35.3736002 C163.633632,35.6096235 163.398113,35.8456468 163.319607,36.1603446 L158.609234,48.8261422 L153.898862,36.1603446 C153.74185,35.7669724 153.584837,35.5309491 153.270812,35.3736002 C153.035294,35.2162513 152.721269,35.1375769 152.407244,35.1375769 C151.936207,35.1375769 151.544461,35.2949258 151.230436,35.6096235 C150.915626,35.9243213 150.758614,36.239019 150.758614,36.6323912 C150.758614,36.8684145 150.758614,37.0257634 150.837905,37.1831123 L156.097036,50.5569798 C156.332554,51.0290264 156.568073,51.4223986 157.03911,51.7370963 C157.510148,52.0517941 157.981185,52.2091429 158.452222,52.2091429 L158.687741,52.2091429 C159.237284,52.2091429 159.629815,52.0517941 160.100852,51.7370963 C160.57189,51.4223986 160.885915,51.0290264 161.042927,50.5569798 L166.302843,37.1831123 C166.381349,37.0257634 166.459855,36.8684145 166.459855,36.6323912 C166.459855,36.239019 166.302843,35.9243213 165.988818,35.5309491 L165.988818,35.5309491 Z M183.65193,49.8489098 C183.337905,49.6128865 183.02388,49.4555376 182.709856,49.4555376 L175.330272,49.4555376 L175.330272,44.8924203 L182.552843,44.8924203 C182.945374,44.8924203 183.259399,44.7350714 183.494918,44.4990481 C183.730436,44.2630248 183.887449,43.9483271 183.887449,43.5549549 C183.887449,43.1615827 183.808943,42.846885 183.494918,42.6108617 C183.180893,42.3748383 182.866868,42.2174895 182.552843,42.2174895 L175.330272,42.2174895 L175.330272,37.9698566 L182.709856,37.9698566 C183.102387,37.9698566 183.416411,37.8125078 183.65193,37.5764844 C183.887449,37.3404611 184.044461,37.0257634 184.044461,36.6323912 C184.044461,36.239019 183.887449,35.9243213 183.65193,35.688298 C183.337905,35.4522747 183.02388,35.2949258 182.709856,35.2949258 L174.153464,35.2949258 C173.681642,35.2949258 173.210604,35.5309491 172.897365,35.8456468 C172.504048,36.1603446 172.347036,36.6323912 172.347036,37.1044378 L172.347036,50.242282 C172.347036,50.7143286 172.58334,51.1863753 172.897365,51.501073 C173.210604,51.8944452 173.681642,52.0517941 174.153464,52.0517941 L182.709856,52.0517941 C183.102387,52.0517941 183.416411,51.8944452 183.65193,51.6584219 C183.887449,51.4223986 184.044461,51.1077008 184.044461,50.7143286 C184.044461,50.3209564 183.887449,50.0062587 183.65193,49.8489098 L183.65193,49.8489098 Z M205.554377,40.5653263 C205.554377,41.2733962 205.475871,41.9814662 205.240353,42.5321872 C205.004834,43.0829083 204.690809,43.6336293 204.376784,44.0270015 C203.984253,44.4203737 203.591722,44.7350714 203.120685,44.9710948 C202.649648,45.2071181 202.17861,45.3644669 201.707573,45.4431414 L204.533797,50.0062587 C204.690809,50.242282 204.769315,50.4783053 204.769315,50.7143286 C204.769315,51.0290264 204.612303,51.4223986 204.376784,51.7370963 C204.141266,52.0517941 203.748735,52.2091429 203.277697,52.2091429 C203.042179,52.2091429 202.80666,52.1304685 202.571141,52.0517941 C202.335623,51.9731196 202.17861,51.7370963 202.021598,51.501073 L198.645831,45.8365136 L195.66338,45.8365136 L195.66338,50.7143286 C195.66338,51.1077008 195.506368,51.501073 195.192343,51.7370963 C194.877533,52.0517941 194.564293,52.1304685 194.093256,52.1304685 C193.700725,52.1304685 193.3867,51.9731196 193.072675,51.7370963 C192.75865,51.4223986 192.680144,51.1077008 192.680144,50.7143286 L192.680144,37.1044378 C192.680144,36.6323912 192.837157,36.1603446 193.229688,35.8456468 C193.543712,35.5309491 194.01475,35.2949258 194.485787,35.2949258 L200.058943,35.2949258 C200.844005,35.2949258 201.629067,35.4522747 202.335623,35.688298 C203.042179,35.9243213 203.591722,36.3176935 204.062759,36.7897401 C204.533797,37.2617867 204.926328,37.811721 205.161846,38.4411165 C205.475871,39.070512 205.554377,39.7785819 205.554377,40.5653263 L205.554377,40.5653263 Z M199.666412,37.8911822 L195.66338,37.8911822 L195.66338,43.1615827 L199.666412,43.1615827 C200.451474,43.1615827 201.158815,42.9255594 201.707573,42.4535128 C202.257117,41.9814662 202.492635,41.3520707 202.492635,40.5653263 C202.492635,39.7785819 202.257117,39.1499732 201.707573,38.6779266 C201.158815,38.1272055 200.52998,37.8911822 199.666412,37.8911822 L199.666412,37.8911822 Z M229.183961,43.6336293 C229.183961,44.8924203 228.948443,46.0725369 228.555912,47.0953045 C228.163381,48.1180722 227.535331,49.0621655 226.750269,49.8489098 C225.965207,50.6356542 225.101638,51.2650497 224.002551,51.6584219 C222.981971,52.0517941 221.805163,52.2878174 220.549063,52.2878174 C219.292964,52.2878174 218.115371,52.0517941 217.09479,51.6584219 C216.074209,51.2650497 215.132135,50.6356542 214.347073,49.8489098 C213.562011,49.0621655 213.012467,48.1180722 212.54143,47.0953045 C212.070393,46.0725369 211.91338,44.8924203 211.91338,43.6336293 C211.91338,42.3748383 212.148899,41.1947218 212.54143,40.1719541 C212.933961,39.1499732 213.562011,38.2058799 214.347073,37.4191356 C215.132135,36.6323912 215.995703,36.0029957 217.09479,35.6096235 C218.115371,35.2162513 219.292964,34.980228 220.549063,34.980228 C221.805163,34.980228 222.981971,35.2162513 224.002551,35.6096235 C225.023132,36.0029957 225.965207,36.6323912 226.750269,37.4191356 C227.535331,38.2058799 228.084874,39.1499732 228.555912,40.1719541 C228.948443,41.2733962 229.183961,42.3748383 229.183961,43.6336293 L229.183961,43.6336293 Z M226.122219,43.6336293 C226.122219,42.7682105 225.965207,41.9814662 225.729688,41.1947218 C225.494169,40.4866519 225.101638,39.7785819 224.630601,39.3073221 C224.159564,38.756601 223.61002,38.3632288 222.90425,38.0485311 C222.196909,37.7338333 221.491138,37.5764844 220.62757,37.5764844 C219.763216,37.5764844 219.057445,37.7338333 218.350889,38.0485311 C217.643549,38.3632288 217.09479,38.756601 216.623753,39.3073221 C216.152716,39.8572564 215.760185,40.4866519 215.524666,41.1947218 C215.289147,41.9027917 215.13135,42.7682105 215.13135,43.6336293 C215.13135,44.4990481 215.289147,45.2857925 215.524666,46.0725369 C215.760185,46.7806068 216.152716,47.4886767 216.623753,47.9607233 C217.09479,48.5114444 217.643549,48.9048166 218.350889,49.2195143 C219.057445,49.5342121 219.763216,49.691561 220.62757,49.691561 C221.491138,49.691561 222.196909,49.5342121 222.90425,49.2195143 C223.61002,48.9048166 224.159564,48.5114444 224.630601,47.9607233 C225.101638,47.4100023 225.494169,46.7806068 225.729688,46.0725369 C225.965207,45.2857925 226.122219,44.4990481 226.122219,43.6336293 L226.122219,43.6336293 Z M252.656533,43.6336293 C252.656533,44.8924203 252.421014,46.0725369 252.028483,47.0953045 C251.635952,48.1180722 251.007902,49.0621655 250.22284,49.8489098 C249.437778,50.6356542 248.57421,51.2650497 247.475123,51.6584219 C246.455327,52.0517941 245.277734,52.2878174 244.021635,52.2878174 C242.765535,52.2878174 241.587942,52.0517941 240.567362,51.6584219 C239.546781,51.2650497 238.604706,50.6356542 237.819644,49.8489098 C237.034582,49.0621655 236.485039,48.1180722 236.014001,47.0953045 C235.542964,46.0725369 235.385952,44.8924203 235.385952,43.6336293 C235.385952,42.3748383 235.62147,41.1947218 236.014001,40.1719541 C236.406533,39.1499732 237.034582,38.2058799 237.819644,37.4191356 C238.604706,36.6323912 239.468275,36.0029957 240.567362,35.6096235 C241.587942,35.2162513 242.765535,34.980228 244.021635,34.980228 C245.277734,34.980228 246.455327,35.2162513 247.475123,35.6096235 C248.495704,36.0029957 249.437778,36.6323912 250.22284,37.4191356 C251.007902,38.2058799 251.557446,39.1499732 252.028483,40.1719541 C252.421014,41.2733962 252.656533,42.3748383 252.656533,43.6336293 L252.656533,43.6336293 Z M249.594791,43.6336293 C249.594791,42.7682105 249.437778,41.9814662 249.20226,41.1947218 C248.966741,40.4866519 248.57421,39.7785819 248.103173,39.3073221 C247.632135,38.756601 247.082592,38.3632288 246.376821,38.0485311 C245.66948,37.7338333 244.962924,37.5764844 244.100141,37.5764844 C243.235788,37.5764844 242.529232,37.7338333 241.823461,38.0485311 C241.116905,38.3632288 240.567362,38.756601 240.096324,39.3073221 C239.625287,39.8572564 239.232756,40.4866519 238.997237,41.1947218 C238.761719,41.9027917 238.604706,42.7682105 238.604706,43.6336293 C238.604706,44.4990481 238.761719,45.2857925 238.997237,46.0725369 C239.232756,46.7806068 239.625287,47.4886767 240.096324,47.9607233 C240.567362,48.5114444 241.116905,48.9048166 241.823461,49.2195143 C242.529232,49.5342121 243.235788,49.691561 244.100141,49.691561 C244.962924,49.691561 245.66948,49.5342121 246.376821,49.2195143 C247.082592,48.9048166 247.632135,48.5114444 248.103173,47.9607233 C248.57421,47.4100023 248.966741,46.7806068 249.20226,46.0725369 C249.437778,45.2857925 249.594791,44.4990481 249.594791,43.6336293 L249.594791,43.6336293 Z" id="Fill-1" fill="#FFFFFF"></path>
                <path d="M40.688198,11.5737964 C23.0478529,11.5737964 8.69613278,25.9554834 8.69613278,43.6336293 C8.69613278,61.3117753 23.0478529,75.694249 40.688198,75.694249 C58.3277582,75.694249 72.6794783,61.3117753 72.6794783,43.6336293 C72.6794783,25.9554834 58.3277582,11.5737964 40.688198,11.5737964 L40.688198,11.5737964 Z M40.688198,74.1207603 C23.9129913,74.1207603 10.266257,60.4439962 10.266257,43.6336293 C10.266257,26.8232624 23.9129913,13.1472851 40.688198,13.1472851 C57.4626197,13.1472851 71.1093541,26.8232624 71.1093541,43.6336293 C71.1093541,60.4439962 57.4626197,74.1207603 40.688198,74.1207603 L40.688198,74.1207603 Z M69.5392299,43.6336293 C69.5392299,59.6021797 56.6218182,72.5472716 40.688198,72.5472716 C24.7537928,72.5472716 11.8363811,59.6021797 11.8363811,43.6336293 C11.8363811,27.6658657 24.7537928,14.7207738 40.688198,14.7207738 C56.6218182,14.7207738 69.5392299,27.6658657 69.5392299,43.6336293 L69.5392299,43.6336293 Z" id="Fill-2" fill="#00AAA5"></path>
                <path d="M62.1125425,54.261759 C62.1109724,54.4899148 62.2821159,54.6559179 62.384174,54.7338056 C62.5922154,54.892728 62.8866137,54.9847771 63.1927879,54.987924 L63.2077041,54.987924 C63.7894351,54.987924 64.2832392,54.6645721 64.2863794,54.2806408 C64.2903048,53.8927759 63.7949306,53.559983 63.206134,53.5552625 C62.6102719,53.5552625 62.1164678,53.8786145 62.1125425,54.261759" id="Fill-3" fill="#FFFFFF"></path>
                <path d="M60.550269,32.7482343 C59.93164,30.0095771 59.425275,29.0245732 59.0296037,27.0404039 C57.7727193,29.9017932 55.82184,32.6231419 53.9321955,33.7851633 C53.9227748,35.3673063 53.458018,36.9620371 52.2898456,38.0792141 C51.3430607,39.0374687 50.1458411,39.3938639 48.8897417,39.3938639 C47.6721104,39.3938639 46.3987397,39.0587108 45.2431283,38.6126268 C44.2484546,38.2279088 40.7949665,36.9014578 36.8264776,36.9014578 C30.8725667,36.900671 23.7591191,39.8855792 22.0421883,53.5159253 C20.7664624,63.645259 15.1391374,74.82647 3.26350311,74.82647 C3.0711629,74.82647 2.84663514,74.8162423 2.61425676,74.8162423 C1.89356976,74.8162423 1.09908693,74.9090781 0.944429695,75.6682865 C0.725397372,76.7390455 1.89435483,77.4235131 3.92766564,77.4235131 C4.11608054,77.4235131 4.31234607,77.4180059 4.51489209,77.4062048 C11.2954734,77.0049651 16.6982707,73.5015925 20.7798085,68.7858467 C24.3706825,64.6389172 26.324702,61.6068044 27.3601989,59.2827615 C28.7379829,59.6289291 31.3137716,59.8122405 32.7064718,59.8893414 C35.3277941,61.7051474 33.3643538,71.647236 33.0526842,75.0805884 C33.1343306,76.2662122 34.3291951,76.3488203 35.2422223,76.3913045 L35.3599816,76.3913045 C37.7928891,76.3913045 41.4175207,76.5628148 44.2256878,76.5628148 C46.4348526,76.5628148 48.1384373,76.4566043 48.3606099,76.0781803 C48.8701152,75.211188 46.832094,75.0113549 45.9881522,74.8901963 C43.3770357,74.5912334 40.7431524,74.5566167 38.1351761,74.226184 L38.1343911,74.226184 C34.3880748,74.226184 39.5215958,66.6734381 38.4539113,59.6100472 C44.9385242,58.9169254 49.6316254,56.9870415 53.0003268,54.4324825 C52.5449908,54.0202285 52.1289079,53.5772914 51.7960416,53.1327808 C51.3516964,52.5435093 50.9905679,51.9573847 50.6851787,51.396436 C50.0657647,50.2808325 49.7501698,49.2572781 49.5680354,48.5444877 C49.3913964,47.8261901 49.3811906,47.4029216 49.3811906,47.4029216 C49.3811906,47.4029216 49.4612669,47.8167491 49.7140569,48.50043 C49.955071,49.1872578 50.4056966,50.1274173 51.0659338,51.1722139 C51.3940898,51.6938254 51.7858358,52.2445464 52.2427419,52.7748121 C52.6219269,53.2177492 53.7249391,54.1775773 53.8340628,54.2593987 C53.9471117,54.3435804 55.2542401,55.2357485 55.9890582,55.4387286 C56.7340821,55.6448556 57.4853865,55.8934668 57.7758595,55.4890802 C57.9022545,55.3159964 57.8779176,55.0823334 57.6266977,54.8392293 C57.2278862,54.3813441 55.8665885,53.9022168 54.9983098,52.6961377 C54.9410003,52.6166765 54.3694751,51.9109668 53.9792992,50.2588036 C53.8089408,49.5381458 53.7500611,48.8465975 53.7021723,48.2148418 C53.6071798,46.9513303 53.6487881,45.9049603 53.5812728,45.179582 C53.5396645,44.4510567 53.3999234,44.0513906 53.3999234,44.0513906 C53.3999234,44.0513906 53.6071798,44.4282411 53.7335748,45.1599134 C53.8646802,45.8860785 53.9800843,46.9340219 54.1418071,48.1676371 C54.3153058,49.3878776 54.5979282,50.8488619 55.4065421,52.0801169 C55.4308791,52.1163071 55.4614965,52.1477769 55.4866185,52.1831804 C61.6116729,45.6421877 61.4452397,36.7087054 60.550269,32.7482343 L60.550269,32.7482343 Z M26.7007468,42.813055 C26.3513941,43.1128046 31.495906,35.4546349 42.091104,38.854944 C42.091104,38.854944 33.6147886,36.8896566 26.7007468,42.813055 L26.7007468,42.813055 Z M56.9491891,47.3030051 C56.9491891,47.3030051 60.4646972,41.7273477 58.6841764,31.3572702 C58.6841764,31.3572702 62.1007666,40.0358473 56.9491891,47.3030051 L56.9491891,47.3030051 Z" id="Fill-4" fill="#FFFFFF"></path>
                <path d="M64.5784225,55.2923941 L68.5461263,58.8374642 L63.2469572,59.6958023 L58.1197167,58.8374642 L61.8628928,55.3167832 C61.802443,55.2664315 61.7451335,55.2137197 61.6933194,55.1570741 L56.6461552,58.8374642 L56.6461552,69.4183892 L63.2469572,71.4694318 L69.7527668,69.4183892 L69.7527668,58.8374642 L64.7126682,55.1625813 C64.6718449,55.2082125 64.6263113,55.2514834 64.5784225,55.2923941 L64.5784225,55.2923941 Z M68.3427953,64.8867417 L66.6054529,66.6278069 C66.5669848,66.6663574 66.5167408,66.6852393 66.4664969,66.6852393 C66.4162529,66.6852393 66.3660089,66.6663574 66.3275409,66.6278069 C66.2513899,66.550706 66.2513899,66.4264004 66.3275409,66.3492994 L68.0648833,64.6082342 C68.1418194,64.5319199 68.2658592,64.5319199 68.3427953,64.6082342 C68.4189463,64.6853351 68.4189463,64.8096407 68.3427953,64.8867417 L68.3427953,64.8867417 Z M68.6411189,63.0929645 L65.2590714,66.4814725 C65.2206033,66.520023 65.1703594,66.5389048 65.1201154,66.5389048 C65.0698714,66.5389048 65.0196274,66.520023 64.9811594,66.4814725 C64.9042233,66.4043715 64.9042233,66.2800659 64.9811594,66.2037517 L68.3632069,62.814457 C68.440143,62.737356 68.5641828,62.737356 68.6411189,62.814457 C68.7172699,62.8915579 68.7172699,63.0158636 68.6411189,63.0929645 L68.6411189,63.0929645 Z" id="Fill-5" fill="#FFFFFF"></path>
                <path d="M70.2143833,58.2017748 L65.051815,54.4364162 C65.0588805,54.3868513 65.0706565,54.3388599 65.0714415,54.2877215 C65.0745818,53.9195252 64.9050084,53.5851588 64.6310217,53.3208127 C64.5470201,51.3232688 62.7986868,48.1440348 60.5471287,45.1850892 C62.6377491,39.0067857 61.4939136,33.3611081 61.3164896,32.5743638 C60.9985394,31.1684516 60.7088515,30.2117704 60.4521362,29.3675937 C60.1019985,28.2102928 59.8225164,27.2803609 59.5877828,25.6226905 C59.6066243,25.5676184 59.6301762,25.5109728 59.6490177,25.4559007 C60.9851933,21.5355536 60.6821594,18.296527 58.8356933,16.4350898 C61.0001095,12.0702321 64.1081703,4.68270247 62.1706371,1.5286443 C61.7451335,0.837882751 60.8737145,0.0133746542 59.1355871,0.0133746542 L59.1120352,0.0133746542 L59.0892684,0.014948143 C57.9415076,0.0826081585 56.9813767,0.564095711 56.2355677,1.44682289 C53.6919665,4.45533335 54.4275697,11.4691594 54.7494452,14.5004854 C54.102554,14.5712924 53.2240695,14.7066124 52.5018124,14.8781227 C52.1634506,13.5957294 51.5369711,11.5124303 50.587831,9.45981427 C48.7774778,5.54654779 46.6334733,3.56159175 44.214697,3.56159175 C43.8245211,3.56159175 43.4257096,3.61587711 43.0308233,3.72287434 C41.9081845,4.01711674 41.4073149,4.68742294 41.1867125,5.19723329 C40.5115591,6.75184016 41.446568,8.81704412 42.2080783,10.2347575 L42.2198542,10.2567863 L42.2332002,10.2772417 C44.2508098,13.5304296 46.6209123,16.5003896 49.0805118,19.5018194 C49.2281035,20.3963477 49.1189798,21.1941065 49.0294828,21.8439573 C48.981594,22.1932718 48.9407707,22.4953817 48.9501915,22.758941 C48.9635376,23.0878002 49.0294828,23.4284605 49.1056338,23.8234062 C49.360779,25.1396295 49.7101316,26.9412741 48.1572788,29.5131414 C47.7600374,30.1928886 47.7969353,31.0048088 48.2569817,31.8080748 C48.9996504,33.1077764 50.8806592,34.3830891 52.0551121,34.3830891 C52.0786639,34.3830891 52.1022158,34.3830891 52.1257677,34.3815156 L52.1485345,34.3823023 C52.4680547,34.3823023 52.7977808,34.3122821 53.1330023,34.1879765 C53.0694123,35.2461476 52.7585277,36.5442758 51.7481528,37.5096112 C51.0133347,38.2530846 50.0830361,38.6071196 48.8897417,38.6071196 C47.9091992,38.6071196 46.7771396,38.3616553 45.5257507,37.8785943 C42.496196,36.7079187 39.5694846,36.1147134 36.8264776,36.1147134 C30.7202647,36.1147134 23.0643392,39.1161432 21.2634067,53.4175823 C19.3486403,68.6222039 10.709817,74.0397256 3.26350311,74.0397256 C3.17714628,74.0397256 3.08372389,74.0373654 2.98637619,74.0350052 C2.86704676,74.0326449 2.74143682,74.0294979 2.61425676,74.0294979 L2.60954639,74.0294979 C2.07727429,74.0294979 0.476532689,74.0334317 0.175068846,75.5101508 C0.0573095326,76.0836875 0.19155515,76.6438495 0.552683712,77.0867866 C1.15090103,77.8223925 2.31828835,78.2102575 3.92766564,78.2102575 C4.13099672,78.2102575 4.34217843,78.2039636 4.56121075,78.1913756 C10.9367,77.8137383 16.5930724,74.823323 21.3733154,69.301951 C24.4444783,65.7537339 26.5555103,62.7625319 27.8076843,60.1820103 C29.1956741,60.438489 31.1465534,60.5863969 32.4089332,60.6603509 C33.94844,62.1756206 33.025207,69.1280805 32.5745813,72.521309 C32.4426909,73.5094599 32.329642,74.3638643 32.2707623,75.0097814 C32.266837,75.0514789 32.266837,75.0931763 32.2691922,75.1348738 C32.4010826,77.0474493 34.366093,77.1387117 35.2053244,77.1772622 L35.3599816,77.1780489 C36.5226586,77.1780489 37.9506865,77.2173861 39.4627161,77.2590836 C41.0846544,77.3031413 42.760762,77.3495592 44.2256878,77.3495592 C47.8809369,77.3495592 48.6903359,77.0679047 49.0373334,76.4778464 C49.2618611,76.0947019 49.2885533,75.6824479 49.1111292,75.3166117 C49.0624554,75.2159084 49.0012205,75.1246461 48.9289948,75.0420379 C51.4404084,74.9853923 52.0747386,74.7163258 52.369922,74.2135961 C52.5889543,73.841466 52.6140763,73.4386529 52.4405776,73.0798975 C52.0739536,72.3222627 51.0196152,72.1208561 49.7815722,71.9532796 L49.589232,71.9265303 C48.3975078,71.7896367 47.2136341,71.7109623 46.0682286,71.6346481 C44.8082039,71.5512532 43.5057859,71.4647113 42.242621,71.3042155 L42.1931621,71.2979215 L42.1437032,71.2979215 C42.0432152,71.2979215 41.8045563,71.2884806 41.7354709,71.1995785 C41.4057448,70.77631 41.875997,68.8849765 42.2543969,67.3665599 C42.8157163,65.1117505 43.4932249,62.3786006 43.343278,59.5888051 C47.4044042,58.6478588 50.8382658,57.1019061 53.6150304,54.9564543 C54.2069673,55.3962444 54.8664194,55.7888298 55.6004525,56.0594699 C56.0094698,56.2065911 56.4357585,56.3230292 56.8895244,56.3781013 C57.1156223,56.4087844 57.351926,56.4150783 57.6086413,56.3859688 C57.6698761,56.3828218 57.7460272,56.3592195 57.8135425,56.3442713 C57.858291,56.3301099 57.8622164,56.3379774 57.9391524,56.3057208 L58.0105931,56.2750378 C58.1495491,56.2105248 58.3230478,56.0870059 58.4117598,55.9493256 C58.6221565,55.6550833 58.6315772,55.3120627 58.5766229,55.0406359 C58.5216685,54.7739296 58.3811424,54.4930618 58.1872321,54.3066034 C57.8606462,53.9533552 56.8290746,53.3853258 56.8290746,53.3853258 C56.8290746,53.3853258 56.0542184,52.8196566 56.0126101,52.7811061 C56.6359494,52.1186673 57.2184654,51.4200383 57.7491674,50.6765649 C57.9611342,50.3791755 58.1597549,50.0794259 58.35131,49.7788896 C59.4574625,50.5609135 60.6735237,51.7221482 61.5378771,53.5796516 C61.4099119,53.7818449 61.3298356,54.0084273 61.3282655,54.2538915 C61.3274804,54.3152576 61.3408265,54.3750502 61.3494622,54.4348427 L56.1845387,58.2017748 C55.9812076,58.3496827 55.8610931,58.585706 55.8610931,58.8374642 L55.8610931,69.4183892 C55.8610931,69.7629832 56.0856208,70.0674533 56.4137768,70.1697301 L63.0145789,72.2207726 C63.0899448,72.244375 63.168451,72.2561761 63.2469572,72.2561761 C63.3262485,72.2561761 63.4055398,72.244375 63.4824759,72.2199859 L69.9882854,70.1689433 C70.3156563,70.0658798 70.5378289,69.7621965 70.5378289,69.4183892 L70.5378289,58.8374642 C70.5378289,58.585706 70.4177144,58.3496827 70.2143833,58.2017748 L70.2143833,58.2017748 Z M64.2863794,54.2806408 C64.2832392,54.6645721 63.7894351,54.987924 63.2077041,54.987924 L63.1927879,54.987924 C62.8866137,54.9847771 62.5922154,54.892728 62.384174,54.7338056 C62.2821159,54.6559179 62.1109724,54.4899148 62.1125425,54.261759 C62.1164678,53.8786145 62.6102719,53.5552625 63.206134,53.5552625 C63.7949306,53.559983 64.2903048,53.8927759 64.2863794,54.2806408 L64.2863794,54.2806408 Z M65.7568007,57.3992955 L63.3262485,57.0326726 L60.7771519,57.4173906 L62.6126271,55.6920602 C62.7955465,55.7408384 62.9871017,55.7723082 63.1857224,55.7746684 L63.2077041,55.7746684 C63.4306618,55.7746684 63.6402733,55.7392649 63.8365389,55.6834061 L65.7568007,57.3992955 L65.7568007,57.3992955 Z M52.1485345,33.595558 C52.1351884,33.595558 52.1226274,33.5947712 52.1100664,33.5947712 C52.09201,33.5963447 52.0739536,33.5963447 52.0551121,33.5963447 C50.8932202,33.5963447 47.9468821,31.4296507 48.8292919,29.920675 C50.9905679,26.3409881 49.7847125,24.0130116 49.7352536,22.7290448 C49.7109167,22.1012228 50.1403456,20.7558899 49.8153299,19.1587988 C47.3659362,16.1715305 44.9385242,13.1496453 42.899718,9.86184064 C42.2284899,8.61249058 40.498213,5.20038026 43.2357245,4.48208266 C43.5725162,4.39082031 43.8983169,4.34833612 44.214697,4.34833612 C49.3144603,4.34912286 51.8494258,15.4917833 51.9397079,15.8623399 C52.7977808,15.5224664 54.9598418,15.2305842 55.506245,15.2305842 C55.556489,15.2305842 55.5933869,15.2329444 55.6137985,15.2384516 C55.4112525,12.8876595 53.648003,1.1242577 59.1355871,0.800119021 C66.2419691,0.800119021 57.9250213,16.4461042 57.8645715,16.6231217 C63.0679631,20.6559734 55.8807196,33.595558 52.1485345,33.595558 L52.1485345,33.595558 Z M42.1429181,72.0846659 L42.1437032,72.0846659 C43.3621195,72.2388678 44.5852463,72.3246229 45.8099431,72.4056576 C47.0338549,72.487479 48.2585518,72.5653667 49.4777532,72.7054072 C50.2659556,72.8179116 52.1697311,73.0051568 51.6931984,73.8147167 C51.485942,74.167965 49.8946212,74.266308 47.8322631,74.266308 C47.5920341,74.266308 47.3392441,74.2639478 47.0880242,74.2615875 C46.8383745,74.2167431 46.5777339,74.1774059 46.3061024,74.1404289 L46.099631,74.1113194 C44.8270454,73.9657717 43.5591701,73.88159 42.3336882,73.7997686 C40.9833814,73.7100797 39.587541,73.6172439 38.234094,73.4457336 C38.2011213,73.4417999 38.1681487,73.4394397 38.1351761,73.4394397 C37.9922948,73.4394397 37.7402899,73.422918 37.6539331,73.3127738 C37.2841688,72.8375802 37.7701223,70.884094 38.1995512,69.1603371 C38.8362366,66.6026311 39.6165883,63.4690283 39.3276854,60.3008087 C40.447184,60.161555 41.5250742,59.979817 42.5660666,59.7626756 C42.8329877,65.9441261 38.8786299,72.0846659 42.1429181,72.0846659 L42.1429181,72.0846659 Z M55.4866185,52.1831804 C55.4614965,52.1477769 55.4308791,52.1163071 55.4065421,52.0801169 C54.5979282,50.8488619 54.3153058,49.3878776 54.1418071,48.1676371 C53.9800843,46.9340219 53.8646802,45.8860785 53.7335748,45.1599134 C53.6071798,44.4282411 53.3999234,44.0513906 53.3999234,44.0513906 C53.3999234,44.0513906 53.5396645,44.4510567 53.5812728,45.179582 C53.6487881,45.9049603 53.6071798,46.9513303 53.7021723,48.2148418 C53.7500611,48.8465975 53.8089408,49.5381458 53.9792992,50.2588036 C54.3694751,51.9109668 54.9410003,52.6166765 54.9983098,52.6961377 C55.8665885,53.9022168 57.2278862,54.3813441 57.6266977,54.8392293 C57.8779176,55.0823334 57.9022545,55.3159964 57.7758595,55.4890802 C57.4853865,55.8934668 56.7340821,55.6448556 55.9890582,55.4387286 C55.2542401,55.2357485 53.9471117,54.3435804 53.8340628,54.2593987 C53.7249391,54.1775773 52.6219269,53.2177492 52.2427419,52.7748121 C51.7858358,52.2445464 51.3940898,51.6938254 51.0659338,51.1722139 C50.4056966,50.1274173 49.955071,49.1872578 49.7140569,48.50043 C49.4612669,47.8167491 49.3811906,47.4029216 49.3811906,47.4029216 C49.3811906,47.4029216 49.3913964,47.8261901 49.5680354,48.5444877 C49.7501698,49.2572781 50.0657647,50.2808325 50.6851787,51.396436 C50.9905679,51.9573847 51.3516964,52.5435093 51.7960416,53.1327808 C52.1289079,53.5772914 52.5449908,54.0202285 53.0003268,54.4324825 C49.6316254,56.9870415 44.9385242,58.9169254 38.4539113,59.6100472 C39.5215958,66.6734381 34.3880748,74.226184 38.1343911,74.226184 L38.1351761,74.226184 C40.7431524,74.5566167 43.3770357,74.5912334 45.9881522,74.8901963 C46.832094,75.0113549 48.8701152,75.211188 48.3606099,76.0781803 C48.1384373,76.4566043 46.4348526,76.5628148 44.2256878,76.5628148 C41.4175207,76.5628148 37.7928891,76.3913045 35.3599816,76.3913045 L35.2422223,76.3913045 C34.3291951,76.3488203 33.1343306,76.2662122 33.0526842,75.0805884 C33.3643538,71.647236 35.3277941,61.7051474 32.7064718,59.8893414 C31.3137716,59.8122405 28.7379829,59.6289291 27.3601989,59.2827615 C26.324702,61.6068044 24.3706825,64.6389172 20.7798085,68.7858467 C16.6982707,73.5015925 11.2954734,77.0049651 4.51489209,77.4062048 C4.31234607,77.4180059 4.11608054,77.4235131 3.92766564,77.4235131 C1.89435483,77.4235131 0.725397372,76.7390455 0.944429695,75.6682865 C1.09908693,74.9090781 1.89356976,74.8162423 2.61425676,74.8162423 C2.84663514,74.8162423 3.0711629,74.82647 3.26350311,74.82647 C15.1391374,74.82647 20.7664624,63.645259 22.0421883,53.5159253 C23.7591191,39.8855792 30.8725667,36.900671 36.8264776,36.9014578 C40.7949665,36.9014578 44.2484546,38.2279088 45.2431283,38.6126268 C46.3987397,39.0587108 47.6721104,39.3938639 48.8897417,39.3938639 C50.1458411,39.3938639 51.3430607,39.0374687 52.2898456,38.0792141 C53.458018,36.9620371 53.9227748,35.3673063 53.9321955,33.7851633 C55.82184,32.6231419 57.7727193,29.9017932 59.0296037,27.0404039 C59.425275,29.0245732 59.93164,30.0095771 60.550269,32.7482343 C61.4452397,36.7087054 61.6116729,45.6421877 55.4866185,52.1831804 L55.4866185,52.1831804 Z M58.7650378,49.1046497 C59.3546194,48.0976169 59.8358624,47.0811431 60.2268234,46.0725369 C62.1423749,48.6703668 63.496607,51.2249257 63.7902202,52.8574203 C63.6018053,52.8054952 63.4023995,52.7700917 63.1912178,52.7677314 C62.801042,52.7677314 62.4422686,52.8605673 62.1455151,53.0202764 C61.2073659,51.1202887 59.9088732,49.9102759 58.7650378,49.1046497 L58.7650378,49.1046497 Z M69.7527668,69.4183892 L63.2469572,71.4694318 L56.6461552,69.4183892 L56.6461552,58.8374642 L61.6933194,55.1570741 C61.7451335,55.2137197 61.802443,55.2664315 61.8628928,55.3167832 L58.1197167,58.8374642 L63.2469572,59.6958023 L68.5461263,58.8374642 L64.5784225,55.2923941 C64.6263113,55.2514834 64.6718449,55.2082125 64.7126682,55.1625813 L69.7527668,58.8374642 L69.7527668,69.4183892 L69.7527668,69.4183892 Z" id="Fill-6" fill="#000000"></path>
                <path d="M68.3632069,62.814457 L64.9811594,66.2037517 C64.9042233,66.2800659 64.9042233,66.4043715 64.9811594,66.4814725 C65.0196274,66.520023 65.0698714,66.5389048 65.1201154,66.5389048 C65.1703594,66.5389048 65.2206033,66.520023 65.2590714,66.4814725 L68.6411189,63.0929645 C68.7172699,63.0158636 68.7172699,62.8915579 68.6411189,62.814457 C68.5641828,62.737356 68.440143,62.737356 68.3632069,62.814457" id="Fill-7" fill="#000000"></path>
                <path d="M63.1912178,52.7677314 C63.4023995,52.7700917 63.6018053,52.8054952 63.7902202,52.8574203 C63.496607,51.2249257 62.1423749,48.6703668 60.2268234,46.0725369 C59.8358624,47.0811431 59.3546194,48.0976169 58.7650378,49.1046497 C59.9088732,49.9102759 61.2073659,51.1202887 62.1455151,53.0202764 C62.4422686,52.8605673 62.801042,52.7677314 63.1912178,52.7677314" id="Fill-8" fill="#FFFFFF"></path>
                <path d="M68.0648833,64.6082342 L66.3275409,66.3492994 C66.2513899,66.4264004 66.2513899,66.550706 66.3275409,66.6278069 C66.3660089,66.6663574 66.4162529,66.6852393 66.4664969,66.6852393 C66.5167408,66.6852393 66.5669848,66.6663574 66.6054529,66.6278069 L68.3427953,64.8867417 C68.4189463,64.8096407 68.4189463,64.6853351 68.3427953,64.6082342 C68.2658592,64.5319199 68.1418194,64.5319199 68.0648833,64.6082342" id="Fill-9" fill="#000000"></path>
                <path d="M39.3276854,60.3008087 C39.6165883,63.4690283 38.8362366,66.6026311 38.1995512,69.1603371 C37.7701223,70.884094 37.2841688,72.8375802 37.6539331,73.3127738 C37.7402899,73.422918 37.9922948,73.4394397 38.1351761,73.4394397 C38.1681487,73.4394397 38.2011213,73.4417999 38.234094,73.4457336 C39.587541,73.6172439 40.9833814,73.7100797 42.3336882,73.7997686 C43.5591701,73.88159 44.8270454,73.9657717 46.099631,74.1113194 L46.3061024,74.1404289 C46.5777339,74.1774059 46.8383745,74.2167431 47.0880242,74.2615875 C47.3392441,74.2639478 47.5920341,74.266308 47.8322631,74.266308 C49.8946212,74.266308 51.485942,74.167965 51.6931984,73.8147167 C52.1697311,73.0051568 50.2659556,72.8179116 49.4777532,72.7054072 C48.2585518,72.5653667 47.0338549,72.487479 45.8099431,72.4056576 C44.5852463,72.3246229 43.3621195,72.2388678 42.1437032,72.0846659 L42.1429181,72.0846659 C38.8786299,72.0846659 42.8329877,65.9441261 42.5660666,59.7626756 C41.5250742,59.979817 40.447184,60.161555 39.3276854,60.3008087" id="Fill-10" fill="#FFFFFF"></path>
                <path d="M26.7007468,42.813055 C33.6147886,36.8896566 42.091104,38.854944 42.091104,38.854944 C31.495906,35.4546349 26.3513941,43.1128046 26.7007468,42.813055" id="Fill-11" fill="#000000"></path>
                <path d="M56.9491891,47.3030051 C62.1007666,40.0358473 58.6841764,31.3572702 58.6841764,31.3572702 C60.4646972,41.7273477 56.9491891,47.3030051 56.9491891,47.3030051" id="Fill-12" fill="#000000"></path>
                <path d="M57.8645715,16.6231217 C57.9250213,16.4461042 66.2419691,0.800119021 59.1355871,0.800119021 C53.648003,1.1242577 55.4112525,12.8876595 55.6137985,15.2384516 C55.5933869,15.2329444 55.556489,15.2305842 55.506245,15.2305842 C54.9598418,15.2305842 52.7977808,15.5224664 51.9397079,15.8623399 C51.8494258,15.4917833 49.3144603,4.34912286 44.214697,4.34833612 C43.8983169,4.34833612 43.5725162,4.39082031 43.2357245,4.48208266 C40.498213,5.20038026 42.2284899,8.61249058 42.899718,9.86184064 C44.9385242,13.1496453 47.3659362,16.1715305 49.8153299,19.1587988 C50.1403456,20.7558899 49.7109167,22.1012228 49.7352536,22.7290448 C49.7847125,24.0130116 50.9905679,26.3409881 48.8292919,29.920675 C47.9468821,31.4296507 50.8932202,33.5963447 52.0551121,33.5963447 C52.0739536,33.5963447 52.09201,33.5963447 52.1100664,33.5947712 C52.1226274,33.5947712 52.1351884,33.595558 52.1485345,33.595558 C55.8807196,33.595558 63.0679631,20.6559734 57.8645715,16.6231217 L57.8645715,16.6231217 Z M57.4649749,22.9564139 C57.2561484,23.5409649 56.8031676,23.9138818 56.4522448,23.7880027 C56.1013221,23.6621236 55.985918,23.0862267 56.1947445,22.5016756 C56.4027859,21.9163378 56.8565518,21.5442077 57.2074746,21.6693001 C57.5576123,21.7951792 57.6730164,22.3710761 57.4649749,22.9564139 L57.4649749,22.9564139 Z M57.2019791,3.09033187 C57.2019791,3.09033187 56.7011095,5.0272965 56.5660788,6.3057561 C56.2308573,9.49207079 56.403571,13.1771814 56.4946382,15.3706247 C56.4946382,15.3706247 54.835802,7.06968488 57.2019791,3.09033187 L57.2019791,3.09033187 Z M51.661796,22.6613847 C51.7238159,23.2797658 51.4733811,23.8108183 51.1028317,23.8477952 C50.7314974,23.8847722 50.3813597,23.4142991 50.3193398,22.795918 C50.2573199,22.1783237 50.5077547,21.6464845 50.8790891,21.6095075 C51.2496384,21.5725305 51.6005611,22.0430037 51.661796,22.6613847 L51.661796,22.6613847 Z M47.1508292,7.73212364 C46.4356376,6.64169595 45.0452927,5.20038026 45.0452927,5.20038026 C49.2822728,7.20893863 51.1295239,16.2171616 51.1295239,16.2171616 C50.2353381,14.1173409 48.9329201,10.4503254 47.1508292,7.73212364 L47.1508292,7.73212364 Z M52.9869808,31.0284111 C52.4445029,31.5484491 51.9397079,32.2950695 51.6398142,32.2974297 C50.6977397,32.2974297 49.6167092,31.081123 49.6167092,30.4603817 C49.6167092,30.2023295 49.6096437,29.579228 50.0100253,29.4218791 C50.550148,29.2102449 51.5401113,29.0654839 53.4768595,29.4265996 C54.5406186,29.7829948 53.7500611,30.2967388 52.9869808,31.0284111 L52.9869808,31.0284111 Z" id="Fill-13" fill="#FFFFFF"></path>
                <path d="M45.0452927,5.20038026 C45.0452927,5.20038026 46.4356376,6.64169595 47.1508292,7.73212364 C48.9329201,10.4503254 50.2353381,14.1173409 51.1295239,16.2171616 C51.1295239,16.2171616 49.2822728,7.20893863 45.0452927,5.20038026" id="Fill-14" fill="#000000"></path>
                <path d="M53.4768595,29.4265996 C51.5401113,29.0654839 50.550148,29.2102449 50.0100253,29.4218791 C49.6096437,29.579228 49.6167092,30.2023295 49.6167092,30.4603817 C49.6167092,31.081123 50.6977397,32.2974297 51.6398142,32.2974297 C51.9397079,32.2950695 52.4445029,31.5484491 52.9869808,31.0284111 C53.7500611,30.2967388 54.5406186,29.7829948 53.4768595,29.4265996" id="Fill-15" fill="#000000"></path>
                <path d="M56.5660788,6.3057561 C56.7011095,5.0272965 57.2019791,3.09033187 57.2019791,3.09033187 C54.835802,7.06968488 56.4946382,15.3706247 56.4946382,15.3706247 C56.403571,13.1771814 56.2308573,9.49207079 56.5660788,6.3057561" id="Fill-16" fill="#000000"></path>
                <path d="M50.3193398,22.795918 C50.3813597,23.4142991 50.7314974,23.8847722 51.1028317,23.8477952 C51.4733811,23.8108183 51.7238159,23.2797658 51.661796,22.6613847 C51.6005611,22.0430037 51.2496384,21.5725305 50.8790891,21.6095075 C50.5077547,21.6464845 50.2573199,22.1783237 50.3193398,22.795918" id="Fill-17" fill="#000000"></path>
                <path d="M56.1947445,22.5016756 C55.985918,23.0862267 56.1013221,23.6621236 56.4522448,23.7880027 C56.8031676,23.9138818 57.2561484,23.5409649 57.4649749,22.9564139 C57.6730164,22.3710761 57.5576123,21.7951792 57.2074746,21.6693001 C56.8565518,21.5442077 56.4027859,21.9163378 56.1947445,22.5016756" id="Fill-18" fill="#000000"></path>
            </g>
        </g>
    </g>
</svg>
