<svg width="108px" height="11px" viewBox="0 0 108 11" version="1.1" xmlns="http://www.w3.org/2000/svg" xmlns:xlink="http://www.w3.org/1999/xlink">
    <!-- Generator: Sketch 43.1 (39012) - http://www.bohemiancoding.com/sketch -->
    <desc>Created with Sketch.</desc>
    <defs></defs>
    <g id="Page-1" stroke="none" stroke-width="1" fill="none" fill-rule="evenodd">
        <g id="Desktop-HD-Copy-52" transform="translate(-134.000000, -17.000000)" fill="#FFFFFF">
            <path d="M143.579409,22.49975 C143.579409,23.2997864 143.429723,23.9998182 143.180246,24.6498477 C142.930769,25.2998773 142.531607,25.8499023 142.032653,26.349925 C141.5337,26.7999455 140.934955,27.1999636 140.286316,27.449975 C139.587781,27.6999864 138.83935,27.8499932 137.991129,27.8499932 L135.147094,27.8499932 C134.847722,27.8499932 134.548849,27.7499886 134.348769,27.4999773 C134.149686,27.2999682 134,26.9999545 134,26.6999409 L134,18.3500614 C134,18.0500477 134.099292,17.7500341 134.348769,17.550025 C134.548849,17.3500159 134.847722,17.2000091 135.147094,17.2000091 L137.991129,17.2000091 C138.83935,17.2000091 139.587781,17.3500159 140.286316,17.6000273 C140.984851,17.8500386 141.583595,18.2500568 142.032653,18.7000773 C142.531607,19.1495977 142.880874,19.749625 143.180246,20.3996545 C143.429723,20.9996818 143.579409,21.7497159 143.579409,22.49975 L143.579409,22.49975 Z M141.63349,22.49975 C141.63349,21.9997273 141.5337,21.4997045 141.384013,21.0496841 C141.234327,20.5996636 140.984851,20.1996454 140.685479,19.9001318 C140.386106,19.5501159 139.986944,19.3001046 139.537885,19.1000955 C139.088827,18.9000864 138.539978,18.8000818 137.991129,18.8000818 L135.895525,18.8000818 L135.895525,26.0999136 L137.991129,26.0999136 C138.589874,26.0999136 139.088827,25.9999091 139.537885,25.7999 C139.986944,25.5998909 140.386106,25.3498795 140.685479,24.9998636 C140.984851,24.6498477 141.234327,24.2998318 141.384013,23.8498114 C141.5337,23.4997954 141.63349,22.9997727 141.63349,22.49975 L141.63349,22.49975 Z M154.755469,26.4499295 C154.555888,26.2999227 154.356307,26.1999182 154.156725,26.1999182 L149.466562,26.1999182 L149.466562,23.2997864 L154.056934,23.2997864 C154.306411,23.2997864 154.505993,23.1997818 154.655679,23.049775 C154.805365,22.8997682 154.905156,22.6997591 154.905156,22.4497477 C154.905156,22.1997364 154.85526,21.9997273 154.655679,21.8497204 C154.456097,21.6997136 154.256516,21.5997091 154.056934,21.5997091 L149.466562,21.5997091 L149.466562,18.9000864 L154.156725,18.9000864 C154.406202,18.9000864 154.605783,18.8000818 154.755469,18.650075 C154.905156,18.5000682 155.004946,18.3000591 155.004946,18.0500477 C155.004946,17.8000364 154.905156,17.6000273 154.755469,17.4500205 C154.555888,17.3000136 154.356307,17.2000091 154.156725,17.2000091 L148.668236,17.2000091 C148.369363,17.2000091 148.069991,17.3500159 147.869911,17.550025 C147.620933,17.7500341 147.521142,18.0500477 147.521142,18.3500614 L147.521142,26.6999409 C147.521142,26.9999545 147.670828,27.2999682 147.869911,27.4999773 C148.069991,27.7499886 148.369363,27.8499932 148.668236,27.8499932 L154.10683,27.8499932 C154.356307,27.8499932 154.555888,27.7499886 154.705574,27.5999818 C154.85526,27.449975 154.955051,27.2499659 154.955051,26.9999545 C154.955051,26.7499432 154.85526,26.5499341 154.755469,26.4499295 L154.755469,26.4499295 Z M165.881634,26.3999273 C165.682053,26.2499205 165.482472,26.1499159 165.28289,26.1499159 L161.341656,26.1499159 L161.341656,18.0000455 C161.341656,17.7500341 161.291262,17.550025 161.092179,17.3500159 C160.942493,17.2000091 160.742912,17.1000045 160.44354,17.1000045 C160.144168,17.1000045 159.944586,17.1500068 159.745005,17.3500159 C159.545423,17.550025 159.445633,17.7500341 159.445633,18.0000455 L159.445633,26.6999409 C159.445633,26.9999545 159.595319,27.2999682 159.7949,27.4999773 C159.994482,27.7499886 160.293854,27.8499932 160.593226,27.8499932 L165.28289,27.8499932 C165.532367,27.8499932 165.731948,27.7499886 165.881634,27.5999818 C166.031321,27.449975 166.131111,27.2499659 166.131111,26.9999545 C166.131111,26.7499432 166.031321,26.5499341 165.881634,26.3999273 L165.881634,26.3999273 Z M172.368031,26.9999545 L172.368031,18.0000455 C172.368031,17.7500341 172.318135,17.550025 172.118554,17.3500159 C171.968868,17.2000091 171.769286,17.1000045 171.469914,17.1000045 C171.170542,17.1000045 170.970961,17.1500068 170.771379,17.3500159 C170.571798,17.550025 170.472007,17.7500341 170.472007,18.0000455 L170.472007,26.9999545 C170.472007,27.2499659 170.521902,27.449975 170.721484,27.6499841 C170.921065,27.7999909 171.120647,27.8999955 171.370123,27.8999955 C171.669496,27.8999955 171.869077,27.8499932 172.068658,27.6499841 C172.218344,27.4999773 172.318135,27.2499659 172.368031,26.9999545 L172.368031,26.9999545 Z M186.188545,17.3500159 C185.988963,17.1500068 185.739487,17.0500023 185.440114,17.0500023 C185.190638,17.0500023 184.991056,17.1500068 184.84137,17.2500114 C184.691684,17.4000182 184.541998,17.550025 184.492103,17.7500341 L181.498381,25.7999 L178.50466,17.7500341 C178.404869,17.5000227 178.305079,17.3500159 178.105497,17.2500114 C177.955811,17.1500068 177.75623,17.1000045 177.556648,17.1000045 C177.257276,17.1000045 177.008298,17.2000091 176.808717,17.4000182 C176.608637,17.6000273 176.508846,17.8000364 176.508846,18.0500477 C176.508846,18.2000545 176.508846,18.3000591 176.55924,18.4000636 L179.90173,26.89995 C180.051416,27.1999636 180.201102,27.449975 180.500474,27.6499841 C180.799846,27.8499932 181.099219,27.9499977 181.398591,27.9499977 L181.548277,27.9499977 C181.897544,27.9499977 182.147021,27.8499932 182.446393,27.6499841 C182.745765,27.449975 182.945347,27.1999636 183.045137,26.89995 L186.388126,18.4000636 C186.438021,18.3000591 186.487917,18.2000545 186.487917,18.0500477 C186.487917,17.8000364 186.388126,17.6000273 186.188545,17.3500159 L186.188545,17.3500159 Z M197.4145,26.4499295 C197.214919,26.2999227 197.015338,26.1999182 196.815756,26.1999182 L192.125593,26.1999182 L192.125593,23.2997864 L196.715965,23.2997864 C196.965442,23.2997864 197.165024,23.1997818 197.31471,23.049775 C197.464396,22.8997682 197.564187,22.6997591 197.564187,22.4497477 C197.564187,22.1997364 197.514291,21.9997273 197.31471,21.8497204 C197.115128,21.6997136 196.915547,21.5997091 196.715965,21.5997091 L192.125593,21.5997091 L192.125593,18.9000864 L196.815756,18.9000864 C197.065233,18.9000864 197.264814,18.8000818 197.4145,18.650075 C197.564187,18.5000682 197.663977,18.3000591 197.663977,18.0500477 C197.663977,17.8000364 197.564187,17.6000273 197.4145,17.4500205 C197.214919,17.3000136 197.015338,17.2000091 196.815756,17.2000091 L191.377662,17.2000091 C191.07779,17.2000091 190.778418,17.3500159 190.579336,17.550025 C190.32936,17.7500341 190.229569,18.0500477 190.229569,18.3500614 L190.229569,26.6999409 C190.229569,26.9999545 190.379754,27.2999682 190.579336,27.4999773 C190.778418,27.7499886 191.07779,27.8499932 191.377662,27.8499932 L196.815756,27.8499932 C197.065233,27.8499932 197.264814,27.7499886 197.4145,27.5999818 C197.564187,27.449975 197.663977,27.2499659 197.663977,26.9999545 C197.663977,26.7499432 197.564187,26.5499341 197.4145,26.4499295 L197.4145,26.4499295 Z M211.334805,20.5496613 C211.334805,20.9996818 211.28491,21.4497023 211.135224,21.7997182 C210.985538,22.1497341 210.785956,22.49975 210.586375,22.7497614 C210.336898,22.9997727 210.087421,23.1997818 209.788049,23.3497886 C209.488677,23.4997954 209.189305,23.5998 208.889933,23.6498023 L210.686166,26.5499341 C210.785956,26.6999409 210.835852,26.8499477 210.835852,26.9999545 C210.835852,27.1999636 210.736061,27.449975 210.586375,27.6499841 C210.436689,27.8499932 210.187212,27.9499977 209.88784,27.9499977 C209.738154,27.9499977 209.588468,27.8999955 209.438782,27.8499932 C209.289096,27.7999909 209.189305,27.6499841 209.089514,27.4999773 L206.944014,23.8998136 L205.04849,23.8998136 L205.04849,26.9999545 C205.04849,27.2499659 204.948699,27.4999773 204.749118,27.6499841 C204.549037,27.8499932 204.349955,27.8999955 204.050583,27.8999955 C203.801106,27.8999955 203.601524,27.7999909 203.401943,27.6499841 C203.202362,27.449975 203.152466,27.2499659 203.152466,26.9999545 L203.152466,18.3500614 C203.152466,18.0500477 203.252257,17.7500341 203.501734,17.550025 C203.701315,17.3500159 204.000687,17.2000091 204.300059,17.2000091 L207.842131,17.2000091 C208.341084,17.2000091 208.840038,17.3000136 209.289096,17.4500205 C209.738154,17.6000273 210.087421,17.8500386 210.386794,18.1500523 C210.686166,18.4500659 210.935642,18.7995818 211.085329,19.1996 C211.28491,19.5996182 211.334805,20.0496386 211.334805,20.5496613 L211.334805,20.5496613 Z M207.592654,18.8500841 L205.04849,18.8500841 L205.04849,22.1997364 L207.592654,22.1997364 C208.091607,22.1997364 208.541164,22.0497295 208.889933,21.7497159 C209.2392,21.4497023 209.388886,21.0496841 209.388886,20.5496613 C209.388886,20.0496386 209.2392,19.6501205 208.889933,19.3501068 C208.541164,19.0000909 208.141503,18.8500841 207.592654,18.8500841 L207.592654,18.8500841 Z M226.352808,22.49975 C226.352808,23.2997864 226.203122,24.0498204 225.953645,24.69985 C225.704168,25.3498795 225.305006,25.9499068 224.806052,26.4499295 C224.307098,26.9499523 223.75825,27.3499705 223.059715,27.5999818 C222.411075,27.8499932 221.663144,28 220.864818,28 C220.066492,28 219.318062,27.8499932 218.669422,27.5999818 C218.020783,27.3499705 217.422039,26.9499523 216.923085,26.4499295 C216.424131,25.9499068 216.074864,25.3498795 215.775492,24.69985 C215.47612,24.0498204 215.376329,23.2997864 215.376329,22.49975 C215.376329,21.6997136 215.526015,20.9496795 215.775492,20.29965 C216.024969,19.6501205 216.424131,19.0500932 216.923085,18.5500705 C217.422039,18.0500477 217.970887,17.6500295 218.669422,17.4000182 C219.318062,17.1500068 220.066492,17 220.864818,17 C221.663144,17 222.411075,17.1500068 223.059715,17.4000182 C223.708354,17.6500295 224.307098,18.0500477 224.806052,18.5500705 C225.305006,19.0500932 225.654273,19.6501205 225.953645,20.29965 C226.203122,20.9996818 226.352808,21.6997136 226.352808,22.49975 L226.352808,22.49975 Z M224.406889,22.49975 C224.406889,21.949725 224.307098,21.4497023 224.157412,20.9496795 C224.007726,20.4996591 223.75825,20.0496386 223.458877,19.750125 C223.159505,19.4001091 222.810238,19.1500977 222.361679,18.9500886 C221.912121,18.7500795 221.463562,18.650075 220.914713,18.650075 C220.365365,18.650075 219.916806,18.7500795 219.467748,18.9500886 C219.018191,19.1500977 218.669422,19.4001091 218.37005,19.750125 C218.070678,20.0996409 217.821201,20.4996591 217.671515,20.9496795 C217.521829,21.3997 217.42154,21.949725 217.42154,22.49975 C217.42154,23.049775 217.521829,23.5497977 217.671515,24.0498204 C217.821201,24.4998409 218.070678,24.9498614 218.37005,25.249875 C218.669422,25.5998909 219.018191,25.8499023 219.467748,26.0499114 C219.916806,26.2499205 220.365365,26.349925 220.914713,26.349925 C221.463562,26.349925 221.912121,26.2499205 222.361679,26.0499114 C222.810238,25.8499023 223.159505,25.5998909 223.458877,25.249875 C223.75825,24.8998591 224.007726,24.4998409 224.157412,24.0498204 C224.307098,23.5497977 224.406889,23.049775 224.406889,22.49975 L224.406889,22.49975 Z M241.27102,22.49975 C241.27102,23.2997864 241.121334,24.0498204 240.871857,24.69985 C240.62238,25.3498795 240.223217,25.9499068 239.724264,26.4499295 C239.22531,26.9499523 238.676462,27.3499705 237.977927,27.5999818 C237.329786,27.8499932 236.581356,28 235.78303,28 C234.984704,28 234.236274,27.8499932 233.587634,27.5999818 C232.938995,27.3499705 232.34025,26.9499523 231.841297,26.4499295 C231.342343,25.9499068 230.993076,25.3498795 230.693704,24.69985 C230.394332,24.0498204 230.294541,23.2997864 230.294541,22.49975 C230.294541,21.6997136 230.444227,20.9496795 230.693704,20.29965 C230.943181,19.6501205 231.342343,19.0500932 231.841297,18.5500705 C232.34025,18.0500477 232.889099,17.6500295 233.587634,17.4000182 C234.236274,17.1500068 234.984704,17 235.78303,17 C236.581356,17 237.329786,17.1500068 237.977927,17.4000182 C238.626566,17.6500295 239.22531,18.0500477 239.724264,18.5500705 C240.223217,19.0500932 240.572485,19.6501205 240.871857,20.29965 C241.121334,20.9996818 241.27102,21.6997136 241.27102,22.49975 L241.27102,22.49975 Z M239.325101,23.49975 C239.325101,22.949725 239.22531,22.4497023 239.075624,21.9496795 C238.925938,21.4996591 238.676462,21.0496386 238.377089,20.750125 C238.077717,20.4001091 237.72845,20.1500977 237.279891,19.9500886 C236.830333,19.7500795 236.381275,19.650075 235.832925,19.650075 C235.283577,19.650075 234.834519,19.7500795 234.38596,19.9500886 C233.936902,20.1500977 233.587634,20.4001091 233.288262,20.750125 C232.98889,21.0996409 232.739413,21.4996591 232.589727,21.9496795 C232.440041,22.3997 232.34025,22.949725 232.34025,23.49975 C232.34025,24.049775 232.440041,24.5497977 232.589727,25.0498204 C232.739413,25.4998409 232.98889,25.9498614 233.288262,26.249875 C233.587634,26.5998909 233.936902,26.8499023 234.38596,27.0499114 C234.834519,27.2499205 235.283577,27.349925 235.832925,27.349925 C236.381275,27.349925 236.830333,27.2499205 237.279891,27.0499114 C237.72845,26.8499023 238.077717,26.5998909 238.377089,26.249875 C238.676462,25.8998591 238.925938,25.4998409 239.075624,25.0498204 C239.22531,24.5497977 239.325101,24.049775 239.325101,23.49975 L239.325101,23.49975 Z" id="Fill-1"></path>
        </g>
    </g>
</svg>
